<svg xmlns="http://www.w3.org/2000/svg" width="18" height="18" viewBox="0 0 48 48">
  <path fill="#FFC107" d="M43.611 20.083H42V20H24v8h11.303C33.64 32.91 29.223 36 24 36 16.82 36 11 30.18 11 23S16.82 10 24 10c3.59 0 6.84 1.35 9.31 3.56l5.66-5.66C35.9 4.02 30.28 2 24 2 11.85 2 2 11.85 2 24s9.85 22 22 22c12.15 0 22-9.85 22-22 0-1.34-.14-2.65-.389-3.917z"/>
  <path fill="#FF3D00" d="M6.305 14.691l6.571 4.819C14.39 16.147 18.83 14 24 14c3.59 0 6.84 1.35 9.31 3.56l5.66-5.66C35.9 4.02 30.28 2 24 2 16.09 2 9.28 6.13 6.305 14.691z"/>
  <path fill="#4CAF50" d="M24 46c5.16 0 9.86-1.97 13.4-5.18l-6.19-5.24C29.76 37.49 27.03 38.5 24 38.5 18.82 38.5 14.42 35.44 12.7 31.18l-6.5 5.02C8.13 42.98 15.48 46 24 46z"/>
  <path fill="#1976D2" d="M43.611 20.083H42V20H24v8h11.303c-1.63 4.01-6.05 7.09-11.303 7.09-5.18 0-9.58-3.06-11.3-7.32l-6.5 5.02C8.13 42.98 15.48 46 24 46c12.15 0 22-9.85 22-22 0-1.34-.14-2.65-.389-3.917z"/>
</svg>